<svg width="160" height="160" viewBox="0 0 160 160" fill="none" xmlns="http://www.w3.org/2000/svg">
  <defs>
    <linearGradient id="bg" x1="28" y1="24" x2="134" y2="136" gradientUnits="userSpaceOnUse">
      <stop stop-color="#5ED6FF"/>
      <stop offset="0.52" stop-color="#337EFF"/>
      <stop offset="1" stop-color="#183ED6"/>
    </linearGradient>
    <linearGradient id="inner" x1="51" y1="47" x2="108" y2="111" gradientUnits="userSpaceOnUse">
      <stop stop-color="#FFFFFF"/>
      <stop offset="1" stop-color="#CFE8FF"/>
    </linearGradient>
  </defs>
  <circle cx="80" cy="80" r="58" fill="url(#bg)"/>
  <path d="M106.5 96.2C100.6 105.1 90.5 111 79 111C60.8 111 46 96.2 46 78C46 59.8 60.8 45 79 45C90.9 45 101.4 51.3 107.2 60.8" stroke="url(#inner)" stroke-width="11" stroke-linecap="round"/>
  <path d="M65 93V72.5C65 65.6 70.6 60 77.5 60C83.5 60 88.5 64.2 89.7 69.8C91.9 68.2 94.6 67.2 97.5 67.2C104.4 67.2 110 72.8 110 79.7V93" stroke="#F2FAFF" stroke-width="9" stroke-linecap="round" stroke-linejoin="round"/>
  <circle cx="52" cy="78" r="5.5" fill="#F2FAFF"/>
  <circle cx="107" cy="60.8" r="5.5" fill="#F2FAFF"/>
  <circle cx="106.5" cy="96.2" r="5.5" fill="#F2FAFF"/>
</svg>
